# xmcd
#
# Track frame offsets: 
#        180
#        18294
#        32788
#        44580
#        57746
#        72989
#        93481
#        111039
#        126175
#        138323
#        151642
#        177082
#        198406
#
# Disc length: 2966 seconds
#
# Revision: 2
# Processed by: cddbd v1.4PL0 Copyright (c) Steve Scherf et al.
# Submitted via: ExactAudioCopy v0.95a2
#
DISCID=b20b940d
DTITLE=Jack Ingram - Lonsome Questions
DYEAR=1995
DGENRE=Country
TTITLE0=Lonesome Question
TTITLE1=Still Got Scars
TTITLE2=Making Plans
TTITLE3=Crazy Like The Moon
TTITLE4=Younger Days
TTITLE5=Drive On
TTITLE6=Come Around
TTITLE7=Mary Go Round
TTITLE8=Working
TTITLE9=Tuesday Night
TTITLE10=Beat Up Ford
TTITLE11=My Old Man
TTITLE12=One Light Town
EXTD=
EXTT0=
EXTT1=
EXTT2=
EXTT3=
EXTT4=
EXTT5=
EXTT6=
EXTT7=
EXTT8=
EXTT9=
EXTT10=
EXTT11=
EXTT12=
PLAYORDER=
